<svg width="32" height="33" viewBox="0 0 32 33" fill="none" xmlns="http://www.w3.org/2000/svg">
<path id="Community Icon" d="M23.312 26.6897L17.016 23.2017C19.356 21.3607 19.992 17.7427 19.992 15.7137V11.4907C19.992 8.69468 16.277 5.58068 12.545 5.58068C8.81499 5.58068 5.00099 8.69468 5.00099 11.4907V15.7137C5.00099 17.5587 5.78099 21.2897 8.14499 23.1857L1.68699 26.6887C1.68699 26.6887 -0.00100708 27.4407 -0.00100708 28.3777V30.9117C-0.00100708 31.8447 0.755993 32.6007 1.68699 32.6007H23.312C24.243 32.6007 25 31.8437 25 30.9117V28.3777C25 27.3837 23.311 26.6887 23.311 26.6887L23.312 26.6897ZM23 30.6027H1.99899V28.8147C2.14199 28.7097 2.34299 28.5887 2.50099 28.5167C2.54799 28.4957 2.59499 28.4727 2.63999 28.4467L9.09899 24.9437C9.68799 24.6237 10.078 24.0317 10.138 23.3647C10.198 22.6977 9.91899 22.0447 9.39699 21.6257C7.71999 20.2807 7.00099 17.3037 7.00099 15.7147V11.4917C7.00099 10.0547 9.70899 7.58168 12.545 7.58168C15.434 7.58168 17.992 10.0217 17.992 11.4917V15.7147C17.992 17.2807 17.506 20.2717 15.78 21.6297C15.252 22.0457 14.967 22.6997 15.023 23.3687C15.079 24.0377 15.469 24.6357 16.058 24.9577L22.354 28.4457C22.409 28.4757 22.48 28.5087 22.538 28.5347C22.686 28.5977 22.867 28.7017 23 28.7937V30.6027ZM30.311 21.7107L23.921 18.2227C26.261 16.3817 26.991 12.7637 26.991 10.7347V6.51168C26.991 3.71568 23.183 0.570679 19.451 0.570679C17.026 0.570679 14.547 1.88968 13.104 3.57768C13.927 3.62868 14.834 3.62968 15.618 3.87968C16.672 3.05868 18.004 2.57168 19.451 2.57168C22.34 2.57168 24.991 5.04168 24.991 6.51268V10.7357C24.991 12.3017 24.411 15.2927 22.686 16.6507C22.157 17.0667 21.873 17.7207 21.929 18.3897C21.985 19.0597 22.374 19.6567 22.964 19.9787L29.354 23.4667C29.409 23.4967 29.48 23.5297 29.538 23.5557C29.686 23.6187 29.867 23.7227 30 23.8147V25.5937H25.963C26.573 26.0537 26.757 26.7117 26.994 27.5937H30.313C31.244 27.5937 32.001 26.8367 32.001 25.9047V23.4017C32 22.4067 30.311 21.7107 30.311 21.7107Z" fill="#E8E8E8" fill-opacity="0.5"/>
</svg>
