<svg width="37" height="36" viewBox="0 0 37 36" fill="none" xmlns="http://www.w3.org/2000/svg">
<path id="Regattas Icon" d="M36.7847 2.23299C36.6073 2.10404 36.3661 2.10043 36.1849 2.22346L34.9727 3.04632L34.9736 3.04747C34.9734 3.04747 34.9727 3.0487 34.9719 3.04921L34.9712 3.04747C34.9703 3.04747 34.7617 3.18783 34.4022 3.38963C34.0415 3.59208 33.525 3.86015 32.8968 4.12592H32.8966C31.6219 4.66807 29.8855 5.19361 28.0714 5.19238C28.0687 5.19238 28.0615 5.19238 28.0573 5.19238C26.9004 5.19123 25.7145 4.98459 24.5485 4.44721C23.4134 3.92405 21.9065 3.18068 20.2486 2.56503H20.2483C18.5889 1.95119 16.7685 1.44955 14.9416 1.44709H14.9344C14.2859 1.44709 13.636 1.51879 12.9979 1.67286C12.9366 0.984942 12.4721 0.372254 11.7705 0.159698L11.7713 0.160276C11.6048 0.110747 11.4355 0.0856934 11.2685 0.0856934C10.5195 0.0856934 9.83002 0.571165 9.60252 1.32471L0.108179 32.8429C0.0580005 33.0094 0.0338136 33.1791 0.0338136 33.3456C0.0335248 34.095 0.520151 34.783 1.27262 35.0123H1.2732C1.43976 35.0624 1.60936 35.0857 1.77477 35.0857C2.5242 35.0857 3.21328 34.6002 3.44143 33.8472L8.14055 18.247C8.958 17.764 9.87674 17.5555 10.9107 17.5538L10.9236 17.5532C12.3507 17.5532 13.9594 17.9699 15.4839 18.5402H15.4849C17.0177 19.1093 18.4651 19.8188 19.6353 20.3598H19.6355C21.1132 21.0418 22.6183 21.2997 24.0275 21.2997H24.0301C24.0313 21.2997 24.0322 21.2997 24.0334 21.2997C26.2685 21.2979 28.2689 20.6685 29.7208 20.0517H29.7211C30.4473 19.7424 31.0375 19.4331 31.4516 19.199C31.6588 19.0814 31.8218 18.9828 31.9356 18.9118C31.9923 18.8766 32.0365 18.8479 32.0684 18.8264L32.1054 18.802L32.1164 18.7953L32.1195 18.7929H32.1198L32.1236 18.7906L32.2824 18.6831C32.3836 18.6138 32.4567 18.5129 32.4908 18.3952L36.9797 2.80033C37.0402 2.58886 36.9623 2.36194 36.7847 2.23299ZM27.1409 6.73544C27.452 6.76165 27.7601 6.77601 28.0638 6.77601C29.0087 6.77536 29.9148 6.6566 30.7536 6.47263L29.6098 10.4454C28.7228 10.6621 27.7554 10.8072 26.7486 10.8067C26.4942 10.8067 26.2366 10.7947 25.9779 10.7757L27.1409 6.73544ZM19.3751 3.93358C19.4826 3.97177 19.5906 4.00946 19.6969 4.04881C20.9118 4.49963 22.0625 5.03232 23.0606 5.49931L21.8989 9.53592C20.8196 9.03197 19.5516 8.45156 18.2104 7.97915L19.3751 3.93358ZM11.9569 3.76817C12.8556 3.24992 13.8597 3.02957 14.9408 3.02957C15.0495 3.02957 15.16 3.03672 15.2692 3.0409L14.1071 7.07701C13.9466 7.06864 13.7853 7.06027 13.6259 7.06027C12.6379 7.06027 11.6781 7.23224 10.7901 7.6401L11.9569 3.76817ZM11.541 15.9922C11.3305 15.9779 11.12 15.9707 10.9104 15.9707C9.98367 15.9695 9.06442 16.1164 8.19766 16.4604L9.32239 12.5533C10.2085 12.1216 11.1762 11.94 12.1829 11.94C12.3552 11.94 12.5286 11.9472 12.7028 11.9567L11.541 15.9922ZM12.9783 11.7657L14.265 7.29549C15.4859 7.38148 16.7438 7.69793 17.9513 8.11236L16.6573 12.6059C15.4599 12.1908 14.2075 11.8684 12.9783 11.7657ZM19.327 18.4698C18.3596 18.0172 17.2353 17.503 16.0356 17.0557C15.9045 17.008 15.7711 16.962 15.6379 16.9142L16.7987 12.8823C18.1391 13.3624 19.4073 13.9464 20.4843 14.4504L19.327 18.4698ZM20.7378 14.3358L22.0339 9.83339C22.282 9.94919 22.5224 10.0615 22.7478 10.1659C23.7313 10.6204 24.7282 10.8652 25.7024 10.9649L24.4162 15.4339C23.4198 15.3461 22.4 15.1049 21.3938 14.6415C21.1865 14.5459 20.9653 14.442 20.7378 14.3358ZM27.0603 19.3004C26.1291 19.5476 25.0999 19.7178 24.0332 19.7171C23.8268 19.7171 23.6187 19.7076 23.41 19.6944L24.5724 15.6578C24.8186 15.6745 25.0638 15.6859 25.3059 15.6859C26.3283 15.6859 27.3087 15.5408 28.2056 15.3222L27.0603 19.3004ZM32.2647 13.4598C31.5804 13.8557 30.2177 14.5609 28.5125 15.0238L29.78 10.6216C31.3869 10.215 32.7125 9.58264 33.5052 9.14965L32.2647 13.4598Z" fill="#E8E8E8" fill-opacity="0.5"/>
</svg>
