<?xml version="1.0" encoding="UTF-8"?>
<!DOCTYPE svg PUBLIC "-//W3C//DTD SVG 1.1//EN" "http://www.w3.org/Graphics/SVG/1.1/DTD/svg11.dtd">
<svg xmlns="http://www.w3.org/2000/svg" version="1.1" width="210px" height="158px" style="shape-rendering:geometricPrecision; text-rendering:geometricPrecision; image-rendering:optimizeQuality; fill-rule:evenodd; clip-rule:evenodd" xmlns:xlink="http://www.w3.org/1999/xlink">
<g><path style="opacity:1" fill="#010101" d="M -0.5,-0.5 C 69.5,-0.5 139.5,-0.5 209.5,-0.5C 209.5,52.1667 209.5,104.833 209.5,157.5C 139.5,157.5 69.5,157.5 -0.5,157.5C -0.5,104.833 -0.5,52.1667 -0.5,-0.5 Z"/></g>
<g><path style="opacity:1" fill="#fcfcfc" d="M 85.5,86.5 C 88.3433,83.4807 90.1766,79.8141 91,75.5C 96.8422,75.9894 103.009,76.3228 109.5,76.5C 112.579,76.1999 115.079,74.8666 117,72.5C 119.463,73.4759 122.13,74.8093 125,76.5C 130.696,75.4519 136.196,74.7853 141.5,74.5C 145.803,73.8342 150.137,73.1675 154.5,72.5C 154.833,71.6667 155.167,70.8333 155.5,70C 154.961,67.4638 153.961,65.1305 152.5,63C 153.215,60.2191 155.048,59.0525 158,59.5C 160.484,59.4967 162.651,60.1634 164.5,61.5C 162.952,61.8212 162.285,62.8212 162.5,64.5C 164.167,64.5 165.833,64.5 167.5,64.5C 165.682,71.8244 168.682,74.491 176.5,72.5C 179.421,72.4765 182.254,72.1432 185,71.5C 185.667,69.5 185.667,67.5 185,65.5C 184.617,64.944 184.117,64.6107 183.5,64.5C 183.5,63.5 183.5,62.5 183.5,61.5C 178.984,48.7858 174.15,36.1191 169,23.5C 167.005,21.253 164.505,20.253 161.5,20.5C 160.082,18.6921 158.082,18.0254 155.5,18.5C 150.5,32.662 145,46.662 139,60.5C 137.644,61.3802 136.144,61.7135 134.5,61.5C 134.5,62.5 134.5,63.5 134.5,64.5C 133.833,64.5 133.167,64.5 132.5,64.5C 132.715,62.8212 132.048,61.8212 130.5,61.5C 128.39,57.4454 126.39,53.2787 124.5,49C 127.469,44.5144 129.802,39.681 131.5,34.5C 131.665,29.9211 129.665,26.9211 125.5,25.5C 124.179,21.6789 121.512,19.5123 117.5,19C 107.506,18.5002 97.5056,18.3335 87.5,18.5C 87.2627,19.791 87.596,20.791 88.5,21.5C 87.5244,22.8149 86.5244,24.1482 85.5,25.5C 79.9805,21.1181 73.9805,18.7847 67.5,18.5C 43.2649,14.2488 31.7649,24.2488 33,48.5C 34.3407,53.858 37.174,58.1913 41.5,61.5C 42.7872,64.4532 44.7872,66.7865 47.5,68.5C 46.3117,69.3636 45.1451,70.3636 44,71.5C 43.2599,72.7494 43.4265,73.7494 44.5,74.5C 45.7911,75.5417 45.7911,76.7083 44.5,78C 45.1667,79 45.8333,80 46.5,81C 54.3155,81.8355 61.9822,83.5022 69.5,86C 70.056,86.3826 70.3893,86.8826 70.5,87.5C 56.7206,87.9497 43.0539,89.4497 29.5,92C 21.3811,93.2874 13.5478,95.4541 6,98.5C 5.50002,67.5018 5.33335,36.5018 5.5,5.5C 71.5,5.5 137.5,5.5 203.5,5.5C 203.833,36.5072 203.5,67.5072 202.5,98.5C 178.115,90.8822 153.115,87.0489 127.5,87C 113.504,86.5001 99.504,86.3334 85.5,86.5 Z"/></g>
<g><path style="opacity:1" fill="#750908" d="M 67.5,18.5 C 71.365,20.0249 74.6983,22.3583 77.5,25.5C 78.7515,27.0009 79.7515,28.6675 80.5,30.5C 81.9395,32.588 82.6061,34.9214 82.5,37.5C 82.9192,45.2369 80.9192,52.2369 76.5,58.5C 70.3842,63.2624 63.3842,65.7624 55.5,66C 61.5479,67.7387 67.5479,69.572 73.5,71.5C 74.5,71.5 75.5,71.5 76.5,71.5C 77.9305,71.5792 79.2638,71.2458 80.5,70.5C 81.7759,71.6136 81.7759,72.6136 80.5,73.5C 78.6675,74.2485 77.0009,75.2485 75.5,76.5C 67.2286,76.0985 59.2286,74.4318 51.5,71.5C 49.901,71.2322 48.5676,71.5655 47.5,72.5C 45.9731,72.427 44.9731,73.0937 44.5,74.5C 43.4265,73.7494 43.2599,72.7494 44,71.5C 45.1451,70.3636 46.3117,69.3636 47.5,68.5C 49.1401,67.6799 50.8068,66.8466 52.5,66C 48.59,65.0434 44.9233,63.5434 41.5,61.5C 37.174,58.1913 34.3407,53.858 33,48.5C 31.7649,24.2488 43.2649,14.2488 67.5,18.5 Z"/></g>
<g><path style="opacity:1" fill="#740505" d="M 125.5,25.5 C 125.5,26.5 125.5,27.5 125.5,28.5C 124.934,31.8732 123.601,34.8732 121.5,37.5C 119.364,38.4026 117.364,39.5693 115.5,41C 117.976,44.1454 120.31,47.312 122.5,50.5C 124.445,54.7363 127.112,58.4029 130.5,61.5C 132.048,61.8212 132.715,62.8212 132.5,64.5C 128.5,64.5 124.5,64.5 120.5,64.5C 116.081,57.328 111.415,50.328 106.5,43.5C 106.196,42.8501 105.863,42.1835 105.5,41.5C 106.602,40.8243 107.602,40.1577 108.5,39.5C 112.665,39.5902 114.998,37.5902 115.5,33.5C 117.054,30.0148 116.387,26.8482 113.5,24C 109.974,22.6632 106.308,22.1632 102.5,22.5C 102.5,23.8333 102.5,25.1667 102.5,26.5C 102.333,37.8382 102.5,49.1716 103,60.5C 103.671,61.2524 104.504,61.5858 105.5,61.5C 105.833,61.5 106.167,61.5 106.5,61.5C 107.167,61.5 107.833,61.5 108.5,61.5C 108.5,62.5 108.5,63.5 108.5,64.5C 107.833,64.5 107.167,64.5 106.5,64.5C 103.5,64.5 100.5,64.5 97.5,64.5C 96.8333,64.5 96.1667,64.5 95.5,64.5C 94.1667,64.5 92.8333,64.5 91.5,64.5C 90.1667,64.5 88.8333,64.5 87.5,64.5C 87.5,63.5 87.5,62.5 87.5,61.5C 89.1667,61.5 90.8333,61.5 92.5,61.5C 93.6066,49.1997 93.7732,36.8663 93,24.5C 92.4115,22.1367 90.9115,21.1367 88.5,21.5C 87.596,20.791 87.2627,19.791 87.5,18.5C 97.5056,18.3335 107.506,18.5002 117.5,19C 121.512,19.5123 124.179,21.6789 125.5,25.5 Z"/></g>
<g><path style="opacity:1" fill="#750807" d="M 161.5,20.5 C 162.263,22.3684 163.263,24.0351 164.5,25.5C 169.008,37.5182 174.008,49.3515 179.5,61C 180.448,61.4828 181.448,61.6495 182.5,61.5C 182.833,61.5 183.167,61.5 183.5,61.5C 183.5,62.5 183.5,63.5 183.5,64.5C 182.833,64.5 182.167,64.5 181.5,64.5C 177.5,64.5 173.5,64.5 169.5,64.5C 168.833,64.5 168.167,64.5 167.5,64.5C 165.833,64.5 164.167,64.5 162.5,64.5C 162.285,62.8212 162.952,61.8212 164.5,61.5C 166.179,61.7148 167.179,61.0481 167.5,59.5C 166.513,56.8544 165.513,54.1878 164.5,51.5C 158.863,50.3368 153.196,50.1701 147.5,51C 145.387,54.1732 144.387,57.6732 144.5,61.5C 146.167,61.5 147.833,61.5 149.5,61.5C 149.5,62.5 149.5,63.5 149.5,64.5C 147.167,64.5 144.833,64.5 142.5,64.5C 139.833,64.5 137.167,64.5 134.5,64.5C 134.5,63.5 134.5,62.5 134.5,61.5C 136.144,61.7135 137.644,61.3802 139,60.5C 145,46.662 150.5,32.662 155.5,18.5C 158.082,18.0254 160.082,18.6921 161.5,20.5 Z"/></g>
<g><path style="opacity:1" fill="#918f8f" d="M 70.5,31.5 C 63.1592,26.7798 56.6592,27.7798 51,34.5C 49.661,41.4264 49.161,48.4264 49.5,55.5C 45.8588,44.8883 47.8588,35.3883 55.5,27C 51.0767,25.8824 47.41,27.0491 44.5,30.5C 46.3806,24.4647 50.5473,21.4647 57,21.5C 63.9195,21.5882 68.4195,24.9215 70.5,31.5 Z"/></g>
<g><path style="opacity:1" fill="#847e7e" d="M 115.5,33.5 C 115.5,32.1667 115.5,30.8333 115.5,29.5C 108.125,28.9066 105.458,32.2399 107.5,39.5C 105.061,35.9376 105.061,32.1042 107.5,28C 106.437,26.8118 105.103,26.3118 103.5,26.5C 103.167,26.5 102.833,26.5 102.5,26.5C 102.5,25.1667 102.5,23.8333 102.5,22.5C 106.308,22.1632 109.974,22.6632 113.5,24C 116.387,26.8482 117.054,30.0148 115.5,33.5 Z"/></g>
<g><path style="opacity:1" fill="#dcdcdc" d="M 161.5,20.5 C 164.505,20.253 167.005,21.253 169,23.5C 174.15,36.1191 178.984,48.7858 183.5,61.5C 183.167,61.5 182.833,61.5 182.5,61.5C 181.344,57.5064 179.511,53.8397 177,50.5C 175.369,46.2438 174.036,41.9105 173,37.5C 169.396,33.9253 166.562,29.9253 164.5,25.5C 163.263,24.0351 162.263,22.3684 161.5,20.5 Z"/></g>
<g><path style="opacity:1" fill="#5c5b5b" d="M 49.5,55.5 C 50.9418,56.8195 51.6085,58.4862 51.5,60.5C 48.7573,58.7607 46.7573,56.4274 45.5,53.5C 45.2213,46.063 45.888,38.7297 47.5,31.5C 46.0413,31.4326 44.7079,31.7659 43.5,32.5C 43.3284,31.5084 43.6618,30.8417 44.5,30.5C 47.41,27.0491 51.0767,25.8824 55.5,27C 47.8588,35.3883 45.8588,44.8883 49.5,55.5 Z"/></g>
<g><path style="opacity:1" fill="#fcfbfb" d="M 71.5,47.5 C 70.6918,57.9695 65.0251,62.6361 54.5,61.5C 50.2139,52.1537 50.5472,42.987 55.5,34C 66.5927,31.2401 71.926,35.7401 71.5,47.5 Z"/></g>
<g><path style="opacity:1" fill="#ddd9d9" d="M 115.5,33.5 C 114.998,37.5902 112.665,39.5902 108.5,39.5C 108.167,39.5 107.833,39.5 107.5,39.5C 105.458,32.2399 108.125,28.9066 115.5,29.5C 115.5,30.8333 115.5,32.1667 115.5,33.5 Z"/></g>
<g><path style="opacity:1" fill="#2b2524" d="M 45.5,53.5 C 42.496,46.8 41.8294,39.8 43.5,32.5C 44.7079,31.7659 46.0413,31.4326 47.5,31.5C 45.888,38.7297 45.2213,46.063 45.5,53.5 Z"/></g>
<g><path style="opacity:1" fill="#434141" d="M 125.5,28.5 C 126.79,29.0577 127.623,30.0577 128,31.5C 128.497,33.8098 128.663,36.1432 128.5,38.5C 127.007,39.4451 125.507,40.4451 124,41.5C 121.98,40.9681 121.147,39.6348 121.5,37.5C 123.601,34.8732 124.934,31.8732 125.5,28.5 Z"/></g>
<g><path style="opacity:1" fill="#9a9797" d="M 154.5,30.5 C 155.497,30.4701 156.164,30.9701 156.5,32C 158.233,36.7979 160.233,41.4646 162.5,46C 158.179,46.499 153.846,46.6657 149.5,46.5C 151.167,41.1667 152.833,35.8333 154.5,30.5 Z"/></g>
<g><path style="opacity:1" fill="#d3d0d0" d="M 70.5,31.5 C 72.613,36.8287 72.9463,42.162 71.5,47.5C 71.926,35.7401 66.5927,31.2401 55.5,34C 50.5472,42.987 50.2139,52.1537 54.5,61.5C 53.391,61.4431 52.391,61.1098 51.5,60.5C 51.6085,58.4862 50.9418,56.8195 49.5,55.5C 49.161,48.4264 49.661,41.4264 51,34.5C 56.6592,27.7798 63.1592,26.7798 70.5,31.5 Z"/></g>
<g><path style="opacity:1" fill="#767373" d="M 121.5,37.5 C 121.147,39.6348 121.98,40.9681 124,41.5C 125.507,40.4451 127.007,39.4451 128.5,38.5C 126.933,41.2827 125.1,43.9493 123,46.5C 122.51,47.7932 122.343,49.1266 122.5,50.5C 120.31,47.312 117.976,44.1454 115.5,41C 117.364,39.5693 119.364,38.4026 121.5,37.5 Z"/></g>
<g><path style="opacity:1" fill="#302b2b" d="M 102.5,26.5 C 102.833,26.5 103.167,26.5 103.5,26.5C 103.953,27.4584 104.619,28.2917 105.5,29C 104.177,39.8332 104.177,50.6666 105.5,61.5C 104.504,61.5858 103.671,61.2524 103,60.5C 102.5,49.1716 102.333,37.8382 102.5,26.5 Z"/></g>
<g><path style="opacity:1" fill="#6f6e6e" d="M 80.5,30.5 C 81.4959,30.4142 82.3292,30.7476 83,31.5C 86.4135,38.7746 87.4135,46.4413 86,54.5C 85.1482,55.5707 84.3149,56.5707 83.5,57.5C 83.777,53.6681 84.1104,49.8348 84.5,46C 84.6397,42.8502 83.973,40.0169 82.5,37.5C 82.6061,34.9214 81.9395,32.588 80.5,30.5 Z"/></g>
<g><path style="opacity:1" fill="#9c9a9a" d="M 164.5,25.5 C 166.562,29.9253 169.396,33.9253 173,37.5C 174.036,41.9105 175.369,46.2438 177,50.5C 179.511,53.8397 181.344,57.5064 182.5,61.5C 181.448,61.6495 180.448,61.4828 179.5,61C 174.008,49.3515 169.008,37.5182 164.5,25.5 Z"/></g>
<g><path style="opacity:1" fill="#555252" d="M 103.5,26.5 C 105.103,26.3118 106.437,26.8118 107.5,28C 105.061,32.1042 105.061,35.9376 107.5,39.5C 107.833,39.5 108.167,39.5 108.5,39.5C 107.602,40.1577 106.602,40.8243 105.5,41.5C 105.863,42.1835 106.196,42.8501 106.5,43.5C 106.5,49.5 106.5,55.5 106.5,61.5C 106.167,61.5 105.833,61.5 105.5,61.5C 104.177,50.6666 104.177,39.8332 105.5,29C 104.619,28.2917 103.953,27.4584 103.5,26.5 Z"/></g>
<g><path style="opacity:1" fill="#302f2f" d="M 82.5,37.5 C 83.973,40.0169 84.6397,42.8502 84.5,46C 84.1104,49.8348 83.777,53.6681 83.5,57.5C 81.5066,59.4668 79.5066,61.4668 77.5,63.5C 76.5481,61.9547 76.2148,60.288 76.5,58.5C 80.9192,52.2369 82.9192,45.2369 82.5,37.5 Z"/></g>
<g><path style="opacity:1" fill="#a6a3a3" d="M 125.5,25.5 C 129.665,26.9211 131.665,29.9211 131.5,34.5C 129.802,39.681 127.469,44.5144 124.5,49C 126.39,53.2787 128.39,57.4454 130.5,61.5C 127.112,58.4029 124.445,54.7363 122.5,50.5C 122.343,49.1266 122.51,47.7932 123,46.5C 125.1,43.9493 126.933,41.2827 128.5,38.5C 128.663,36.1432 128.497,33.8098 128,31.5C 127.623,30.0577 126.79,29.0577 125.5,28.5C 125.5,27.5 125.5,26.5 125.5,25.5 Z"/></g>
<g><path style="opacity:1" fill="#817f7f" d="M 167.5,59.5 C 162.264,57.0869 156.931,56.9203 151.5,59C 150.54,62.73 150.207,66.5633 150.5,70.5C 147.017,71.0841 144.017,70.2508 141.5,68C 142.337,66.9887 142.67,65.8221 142.5,64.5C 144.833,64.5 147.167,64.5 149.5,64.5C 149.5,63.5 149.5,62.5 149.5,61.5C 147.833,61.5 146.167,61.5 144.5,61.5C 144.387,57.6732 145.387,54.1732 147.5,51C 153.196,50.1701 158.863,50.3368 164.5,51.5C 165.513,54.1878 166.513,56.8544 167.5,59.5 Z"/></g>
<g><path style="opacity:1" fill="#b9b8b8" d="M 106.5,43.5 C 111.415,50.328 116.081,57.328 120.5,64.5C 122.522,69.6766 126.189,71.3433 131.5,69.5C 132.309,67.9291 132.643,66.2624 132.5,64.5C 133.167,64.5 133.833,64.5 134.5,64.5C 137.167,64.5 139.833,64.5 142.5,64.5C 142.67,65.8221 142.337,66.9887 141.5,68C 144.017,70.2508 147.017,71.0841 150.5,70.5C 150.207,66.5633 150.54,62.73 151.5,59C 156.931,56.9203 162.264,57.0869 167.5,59.5C 167.179,61.0481 166.179,61.7148 164.5,61.5C 162.651,60.1634 160.484,59.4967 158,59.5C 155.048,59.0525 153.215,60.2191 152.5,63C 153.961,65.1305 154.961,67.4638 155.5,70C 155.167,70.8333 154.833,71.6667 154.5,72.5C 150.137,73.1675 145.803,73.8342 141.5,74.5C 134.558,73.9524 127.558,72.9524 120.5,71.5C 118.048,68.394 116.048,65.0607 114.5,61.5C 111.816,52.4591 109.816,52.4591 108.5,61.5C 107.833,61.5 107.167,61.5 106.5,61.5C 106.5,55.5 106.5,49.5 106.5,43.5 Z"/></g>
<g><path style="opacity:1" fill="#5b5454" d="M 41.5,61.5 C 44.9233,63.5434 48.59,65.0434 52.5,66C 50.8068,66.8466 49.1401,67.6799 47.5,68.5C 44.7872,66.7865 42.7872,64.4532 41.5,61.5 Z"/></g>
<g><path style="opacity:1" fill="#b0b0b0" d="M 77.5,25.5 C 86.3642,29.546 90.3642,36.546 89.5,46.5C 89.1667,49.1667 88.8333,51.8333 88.5,54.5C 86.4728,57.2211 84.9728,60.2211 84,63.5C 81.6667,65.5 79.3333,67.5 77,69.5C 76.5357,70.0944 76.369,70.7611 76.5,71.5C 75.5,71.5 74.5,71.5 73.5,71.5C 73.3893,70.8826 73.056,70.3826 72.5,70C 77.9084,67.3393 81.5751,63.1726 83.5,57.5C 84.3149,56.5707 85.1482,55.5707 86,54.5C 87.4135,46.4413 86.4135,38.7746 83,31.5C 82.3292,30.7476 81.4959,30.4142 80.5,30.5C 79.7515,28.6675 78.7515,27.0009 77.5,25.5 Z"/></g>
<g><path style="opacity:1" fill="#7a7676" d="M 83.5,57.5 C 81.5751,63.1726 77.9084,67.3393 72.5,70C 73.056,70.3826 73.3893,70.8826 73.5,71.5C 67.5479,69.572 61.5479,67.7387 55.5,66C 63.3842,65.7624 70.3842,63.2624 76.5,58.5C 76.2148,60.288 76.5481,61.9547 77.5,63.5C 79.5066,61.4668 81.5066,59.4668 83.5,57.5 Z"/></g>
<g><path style="opacity:1" fill="#d5d5d5" d="M 114.5,61.5 C 111.688,60.1128 110.855,61.1128 112,64.5C 115.825,68.4941 115.325,71.6608 110.5,74C 103.833,74.6667 97.1667,74.6667 90.5,74C 89.6919,71.9124 88.6919,69.9124 87.5,68C 88.5908,66.4499 89.9242,65.2832 91.5,64.5C 92.8333,64.5 94.1667,64.5 95.5,64.5C 93.8807,69.8447 96.0473,72.178 102,71.5C 107.929,72.1856 110.096,69.8523 108.5,64.5C 108.5,63.5 108.5,62.5 108.5,61.5C 109.816,52.4591 111.816,52.4591 114.5,61.5 Z"/></g>
<g><path style="opacity:1" fill="#ebe9e9" d="M 67.5,18.5 C 73.9805,18.7847 79.9805,21.1181 85.5,25.5C 86.5244,24.1482 87.5244,22.8149 88.5,21.5C 90.9115,21.1367 92.4115,22.1367 93,24.5C 93.7732,36.8663 93.6066,49.1997 92.5,61.5C 90.8333,61.5 89.1667,61.5 87.5,61.5C 87.5,62.5 87.5,63.5 87.5,64.5C 88.8333,64.5 90.1667,64.5 91.5,64.5C 89.9242,65.2832 88.5908,66.4499 87.5,68C 88.6919,69.9124 89.6919,71.9124 90.5,74C 97.1667,74.6667 103.833,74.6667 110.5,74C 115.325,71.6608 115.825,68.4941 112,64.5C 110.855,61.1128 111.688,60.1128 114.5,61.5C 116.048,65.0607 118.048,68.394 120.5,71.5C 127.558,72.9524 134.558,73.9524 141.5,74.5C 136.196,74.7853 130.696,75.4519 125,76.5C 122.13,74.8093 119.463,73.4759 117,72.5C 115.079,74.8666 112.579,76.1999 109.5,76.5C 103.009,76.3228 96.8422,75.9894 91,75.5C 90.1766,79.8141 88.3433,83.4807 85.5,86.5C 80.453,86.3375 75.453,86.6708 70.5,87.5C 70.3893,86.8826 70.056,86.3826 69.5,86C 61.9822,83.5022 54.3155,81.8355 46.5,81C 45.8333,80 45.1667,79 44.5,78C 45.7911,76.7083 45.7911,75.5417 44.5,74.5C 44.9731,73.0937 45.9731,72.427 47.5,72.5C 48.5,72.5 49.5,72.5 50.5,72.5C 50.0268,75.8329 51.3601,77.9996 54.5,79C 63.0803,82.9829 72.0803,84.6495 81.5,84C 85.1816,82.6802 86.6816,80.1802 86,76.5C 83.7908,76.0108 81.9575,75.0108 80.5,73.5C 81.7759,72.6136 81.7759,71.6136 80.5,70.5C 79.2638,71.2458 77.9305,71.5792 76.5,71.5C 76.369,70.7611 76.5357,70.0944 77,69.5C 79.3333,67.5 81.6667,65.5 84,63.5C 84.9728,60.2211 86.4728,57.2211 88.5,54.5C 88.8333,51.8333 89.1667,49.1667 89.5,46.5C 90.3642,36.546 86.3642,29.546 77.5,25.5C 74.6983,22.3583 71.365,20.0249 67.5,18.5 Z"/></g>
<g><path style="opacity:1" fill="#807f7f" d="M 95.5,64.5 C 96.1667,64.5 96.8333,64.5 97.5,64.5C 98.311,69.5485 100.978,70.7152 105.5,68C 106.337,66.9887 106.67,65.8221 106.5,64.5C 107.167,64.5 107.833,64.5 108.5,64.5C 110.096,69.8523 107.929,72.1856 102,71.5C 96.0473,72.178 93.8807,69.8447 95.5,64.5 Z"/></g>
<g><path style="opacity:1" fill="#454545" d="M 97.5,64.5 C 100.5,64.5 103.5,64.5 106.5,64.5C 106.67,65.8221 106.337,66.9887 105.5,68C 100.978,70.7152 98.311,69.5485 97.5,64.5 Z"/></g>
<g><path style="opacity:1" fill="#5e5e5e" d="M 120.5,64.5 C 124.5,64.5 128.5,64.5 132.5,64.5C 132.643,66.2624 132.309,67.9291 131.5,69.5C 126.189,71.3433 122.522,69.6766 120.5,64.5 Z"/></g>
<g><path style="opacity:1" fill="#afafaf" d="M 167.5,64.5 C 168.167,64.5 168.833,64.5 169.5,64.5C 169.238,69.0697 171.404,71.0697 176,70.5C 181.333,71.3032 183.166,69.3032 181.5,64.5C 182.167,64.5 182.833,64.5 183.5,64.5C 184.117,64.6107 184.617,64.944 185,65.5C 185.667,67.5 185.667,69.5 185,71.5C 182.254,72.1432 179.421,72.4765 176.5,72.5C 168.682,74.491 165.682,71.8244 167.5,64.5 Z"/></g>
<g><path style="opacity:1" fill="#606060" d="M 169.5,64.5 C 173.5,64.5 177.5,64.5 181.5,64.5C 183.166,69.3032 181.333,71.3032 176,70.5C 171.404,71.0697 169.238,69.0697 169.5,64.5 Z"/></g>
<g><path style="opacity:1" fill="#656262" d="M 51.5,71.5 C 59.2286,74.4318 67.2286,76.0985 75.5,76.5C 77.2785,77.6697 78.2785,79.3364 78.5,81.5C 70.7639,80.8164 63.0973,79.6497 55.5,78C 53.7794,76.0562 52.446,73.8895 51.5,71.5 Z"/></g>
<g><path style="opacity:1" fill="#afafaf" d="M 47.5,72.5 C 48.5676,71.5655 49.901,71.2322 51.5,71.5C 52.446,73.8895 53.7794,76.0562 55.5,78C 63.0973,79.6497 70.7639,80.8164 78.5,81.5C 78.2785,79.3364 77.2785,77.6697 75.5,76.5C 77.0009,75.2485 78.6675,74.2485 80.5,73.5C 81.9575,75.0108 83.7908,76.0108 86,76.5C 86.6816,80.1802 85.1816,82.6802 81.5,84C 72.0803,84.6495 63.0803,82.9829 54.5,79C 51.3601,77.9996 50.0268,75.8329 50.5,72.5C 49.5,72.5 48.5,72.5 47.5,72.5 Z"/></g>
<g><path style="opacity:1" fill="#a3a2a4" d="M 139.5,135.5 C 138.778,135.082 138.278,134.416 138,133.5C 136.11,137.852 132.943,139.186 128.5,137.5C 127.416,136.335 126.583,135.002 126,133.5C 124.634,137.766 121.801,139.266 117.5,138C 116.54,136.581 115.707,135.081 115,133.5C 111.45,140.1 107.95,140.1 104.5,133.5C 100.743,140.006 97.243,140.006 94,133.5C 92.6344,137.766 89.8011,139.266 85.5,138C 84.5399,136.581 83.7065,135.081 83,133.5C 81.1101,137.852 77.9435,139.186 73.5,137.5C 72.4164,136.335 71.5831,135.002 71,133.5C 70.7216,134.416 70.2216,135.082 69.5,135.5C 69.63,117.19 78.63,105.69 96.5,101C 115.139,98.4034 128.973,105.237 138,121.5C 139.309,126.066 139.809,130.733 139.5,135.5 Z"/></g>
<g><path style="opacity:1" fill="#a1a1a3" d="M 60.5,133.5 C 58.8922,137.637 55.8922,139.137 51.5,138C 50.5399,136.581 49.7065,135.081 49,133.5C 47.1101,137.852 43.9435,139.186 39.5,137.5C 38.4164,136.335 37.5831,135.002 37,133.5C 35.1101,137.852 31.9435,139.186 27.5,137.5C 26.4164,136.335 25.5831,135.002 25,133.5C 21.1205,140.113 17.2872,140.113 13.5,133.5C 12.8182,134.243 12.1515,134.909 11.5,135.5C 11.7699,125.713 16.1032,118.213 24.5,113C 38.3245,108.08 49.4912,111.58 58,123.5C 59.7585,126.608 60.5919,129.941 60.5,133.5 Z"/></g>
<g><path style="opacity:1" fill="#a2a1a3" d="M 196.5,135.5 C 195.778,135.082 195.278,134.416 195,133.5C 193.634,137.766 190.801,139.266 186.5,138C 185.54,136.581 184.707,135.081 184,133.5C 182.11,137.852 178.943,139.186 174.5,137.5C 173.416,136.335 172.583,135.002 172,133.5C 170.11,137.852 166.943,139.186 162.5,137.5C 161.416,136.335 160.583,135.002 160,133.5C 158.11,137.852 154.943,139.186 150.5,137.5C 149.416,136.335 148.583,135.002 148,133.5C 147.722,134.416 147.222,135.082 146.5,135.5C 146.901,120.263 154.735,111.93 170,110.5C 182.072,110.526 190.739,115.86 196,126.5C 196.498,129.482 196.665,132.482 196.5,135.5 Z"/></g>
<g><path style="opacity:1" fill="#0a06fc" d="M 11.5,135.5 C 12.1515,134.909 12.8182,134.243 13.5,133.5C 17.2872,140.113 21.1205,140.113 25,133.5C 25.5831,135.002 26.4164,136.335 27.5,137.5C 31.9435,139.186 35.1101,137.852 37,133.5C 37.5831,135.002 38.4164,136.335 39.5,137.5C 43.9435,139.186 47.1101,137.852 49,133.5C 49.7065,135.081 50.5399,136.581 51.5,138C 55.8922,139.137 58.8922,137.637 60.5,133.5C 60.8182,136.485 62.4848,138.152 65.5,138.5C 67.6528,138.439 68.9862,137.439 69.5,135.5C 70.2216,135.082 70.7216,134.416 71,133.5C 71.5831,135.002 72.4164,136.335 73.5,137.5C 77.9435,139.186 81.1101,137.852 83,133.5C 83.7065,135.081 84.5399,136.581 85.5,138C 89.8011,139.266 92.6344,137.766 94,133.5C 97.243,140.006 100.743,140.006 104.5,133.5C 107.95,140.1 111.45,140.1 115,133.5C 115.707,135.081 116.54,136.581 117.5,138C 121.801,139.266 124.634,137.766 126,133.5C 126.583,135.002 127.416,136.335 128.5,137.5C 132.943,139.186 136.11,137.852 138,133.5C 138.278,134.416 138.778,135.082 139.5,135.5C 141.833,139.5 144.167,139.5 146.5,135.5C 147.222,135.082 147.722,134.416 148,133.5C 148.583,135.002 149.416,136.335 150.5,137.5C 154.943,139.186 158.11,137.852 160,133.5C 160.583,135.002 161.416,136.335 162.5,137.5C 166.943,139.186 170.11,137.852 172,133.5C 172.583,135.002 173.416,136.335 174.5,137.5C 178.943,139.186 182.11,137.852 184,133.5C 184.707,135.081 185.54,136.581 186.5,138C 190.801,139.266 193.634,137.766 195,133.5C 195.278,134.416 195.778,135.082 196.5,135.5C 196.5,136.167 196.5,136.833 196.5,137.5C 196.791,138.649 197.624,139.316 199,139.5C 201.209,139.443 202.709,138.443 203.5,136.5C 203.5,141.5 203.5,146.5 203.5,151.5C 137.167,151.5 70.8333,151.5 4.5,151.5C 4.33385,145.491 4.50051,139.491 5,133.5C 5.64092,135.813 6.97425,137.48 9,138.5C 10.7491,138.252 11.5824,137.252 11.5,135.5 Z"/></g>
<g><path style="opacity:1" fill="#00019f" d="M 203.5,136.5 C 202.709,138.443 201.209,139.443 199,139.5C 197.624,139.316 196.791,138.649 196.5,137.5C 199.878,138.686 202.044,137.353 203,133.5C 203.483,134.448 203.649,135.448 203.5,136.5 Z"/></g>
</svg>
